<?xml version="1.0" encoding="UTF-8" standalone="no"?>
<!DOCTYPE svg PUBLIC "-//W3C//DTD SVG 1.1//EN" "http://www.w3.org/Graphics/SVG/1.1/DTD/svg11.dtd">
<svg width="100%" height="100%" viewBox="0 0 498 564" version="1.1" xmlns="http://www.w3.org/2000/svg" xmlns:xlink="http://www.w3.org/1999/xlink" xml:space="preserve" xmlns:serif="http://www.serif.com/" style="fill-rule:evenodd;clip-rule:evenodd;stroke-linejoin:round;stroke-miterlimit:2;">
    <g id="Artboard1" transform="matrix(0.710175,0,0,0.804926,0,0)">
        <rect x="0" y="0" width="700" height="700" style="fill:none;"/>
        <g transform="matrix(1.4081,0,0,1.24235,-148.141,0)">
            <path d="M579.16,503.12L466.55,358.74C502.445,321.455 522.835,271.928 523.601,220.18C524.363,168.43 505.445,118.32 470.667,80C435.89,41.668 387.855,17.98 336.277,13.723C284.699,9.465 233.427,24.961 192.837,57.071C152.247,89.18 125.368,135.509 117.638,186.681C109.908,237.853 121.908,290.051 151.2,332.721C180.497,375.385 224.907,405.33 275.44,416.498C325.975,427.662 378.87,419.217 423.41,392.869L535.85,536.979C540.366,542.745 546.995,546.471 554.268,547.342C561.541,548.213 568.862,546.151 574.612,541.615C580.288,537.092 583.948,530.51 584.8,523.299C585.652,516.092 583.624,508.838 579.163,503.115L579.16,503.12ZM335.64,373.53C292.187,378.139 248.769,364.491 215.77,335.842C182.77,307.197 163.157,266.127 161.618,222.452C160.075,178.784 176.751,136.432 207.649,105.532C238.547,74.634 280.895,57.962 324.569,59.501C368.243,61.04 409.311,80.653 437.959,113.653C466.607,146.653 480.256,190.067 475.643,233.523C471.842,269.351 455.87,302.793 430.393,328.269C404.916,353.746 371.475,369.718 335.643,373.523L335.64,373.53Z" style="fill-rule:nonzero;"/>
            <path d="M401.45,202.91L334.075,202.91L334.075,133.695C334.388,129.73 333.028,125.816 330.329,122.898C327.63,119.976 323.833,118.316 319.856,118.316C315.879,118.316 312.083,119.976 309.383,122.898C306.684,125.816 305.328,129.73 305.637,133.695L305.637,202.906L238.262,202.906L238.262,202.91C233.106,202.91 228.34,205.66 225.758,210.129C223.18,214.594 223.18,220.098 225.758,224.567C228.34,229.032 233.105,231.786 238.262,231.786L305.637,231.786L305.637,300.997C306.219,308.418 312.414,314.142 319.856,314.142C327.301,314.142 333.493,308.419 334.075,300.997L334.075,231.786L401.45,231.786C406.61,231.786 411.376,229.032 413.954,224.567C416.532,220.098 416.532,214.594 413.954,210.129C411.376,205.66 406.61,202.91 401.45,202.91L401.45,202.91Z" style="fill-rule:nonzero;"/>
        </g>
    </g>
</svg>
