<?xml version="1.0" encoding="UTF-8" standalone="no"?>
<!DOCTYPE svg PUBLIC "-//W3C//DTD SVG 1.1//EN" "http://www.w3.org/Graphics/SVG/1.1/DTD/svg11.dtd">
<svg width="100%" height="100%" viewBox="0 0 476 479" version="1.1" xmlns="http://www.w3.org/2000/svg" xmlns:xlink="http://www.w3.org/1999/xlink" xml:space="preserve" xmlns:serif="http://www.serif.com/" style="fill-rule:evenodd;clip-rule:evenodd;stroke-linejoin:round;stroke-miterlimit:2;">
    <g id="Artboard1" transform="matrix(0.679079,0,0,0.683031,0,0)">
        <rect x="0" y="0" width="700" height="700" style="fill:none;"/>
        <g transform="matrix(1.47258,0,0,1.46406,-156.931,-74.5358)">
            <path d="M554.88,460.12L465.407,370.651C495.501,334.198 510.407,287.557 507.032,240.411C503.653,193.263 482.259,149.223 447.278,117.431C412.298,85.638 366.423,68.529 319.168,69.654C271.914,70.783 226.902,90.056 193.478,123.482C160.052,156.908 140.779,201.92 139.654,249.172C138.529,296.43 155.638,342.305 187.435,377.282C219.232,412.259 263.271,433.653 310.425,437.028C357.573,440.403 404.21,425.497 440.665,395.399L530.134,484.872C534.556,489.286 540.997,491.009 547.032,489.388C553.067,487.77 557.782,483.056 559.399,477.021C561.02,470.985 559.297,464.544 554.883,460.123L554.88,460.12ZM175,253.74C175,214.291 190.672,176.455 218.566,148.56C246.464,120.665 284.3,104.994 323.746,104.994C363.192,104.994 401.031,120.666 428.926,148.56C456.821,176.458 472.492,214.294 472.492,253.74C472.492,293.186 456.82,331.025 428.926,358.92C401.028,386.815 363.192,402.486 323.746,402.486C284.308,402.443 246.5,386.756 218.616,358.869C190.729,330.982 175.042,293.174 174.999,253.739L175,253.74Z" style="fill-rule:nonzero;"/>
            <path d="M376.25,236.25L271.25,236.25C264.996,236.25 259.219,239.586 256.094,245C252.969,250.414 252.969,257.086 256.094,262.5C259.219,267.914 264.996,271.25 271.25,271.25L376.25,271.25C382.504,271.25 388.281,267.914 391.406,262.5C394.531,257.086 394.531,250.414 391.406,245C388.281,239.586 382.504,236.25 376.25,236.25Z" style="fill-rule:nonzero;"/>
        </g>
    </g>
</svg>
